HIERARCHY
ROOT Hips
{
	OFFSET 0.000000 0.000000 0.000000
	CHANNELS 6 Xposition Yposition Zposition Zrotation Yrotation Xrotation 
	JOINT LHipJoint
	{
		OFFSET 0.000000 0.000000 0.000000
		CHANNELS 3 Zrotation Yrotation Xrotation
		JOINT LeftUpLeg
		{
			OFFSET 1.363060 -1.794630 0.839290
			CHANNELS 3 Zrotation Yrotation Xrotation
			JOINT LeftLeg
			{
				OFFSET 2.448110 -6.726130 0.000000
				CHANNELS 3 Zrotation Yrotation Xrotation
				JOINT LeftFoot
				{
					OFFSET 2.562200 -7.039590 0.000000
					CHANNELS 3 Zrotation Yrotation Xrotation
					JOINT LeftToeBase
					{
						OFFSET 0.157640 -0.433110 2.322550
						CHANNELS 3 Zrotation Yrotation Xrotation
						End Site
						{
							OFFSET 0.000000 0.000000 0.000000
						}
					}
				}
			}
		}
	}
	JOINT RHipJoint
	{
		OFFSET 0.000000 0.000000 0.000000
		CHANNELS 3 Zrotation Yrotation Xrotation
		JOINT RightUpLeg
		{
			OFFSET -1.305520 -1.794630 0.839290
			CHANNELS 3 Zrotation Yrotation Xrotation
			JOINT RightLeg
			{
				OFFSET -2.542530 -6.985550 0.000000
				CHANNELS 3 Zrotation Yrotation Xrotation
				JOINT RightFoot
				{
					OFFSET -2.568260 -7.056230 0.000000
					CHANNELS 3 Zrotation Yrotation Xrotation
					JOINT RightToeBase
					{
						OFFSET -0.164730 -0.452590 2.363150
						CHANNELS 3 Zrotation Yrotation Xrotation
						End Site
						{
							OFFSET 0.000000 0.000000 0.000000
						}
					}
				}
			}
		}
	}
}
MOTION
Frames: 16
Frame Time: 0.008333
1.753115 17.352882 1.658919 177.171868 -68.027463 -164.917673 -11.056515 2.400873 -0.432712 -9.916057 18.446906 -14.978054 -2.325646 -0.902776 4.381695 2.435475 16.192197 -4.054686 1.224800 0.000001 -26.744000 9.809409 -1.021234 3.259711 -0.863060 1.470905 -20.255806 2.416513 0.516937 4.312583 1.073423 6.338450 8.435630 1.178400 0.000000 -74.586100
1.754714 17.349480 1.677165 176.746327 -68.751877 -164.211254 -10.989534 2.348315 -0.308156 -10.123233 17.413884 -15.551789 -2.305802 -0.873390 5.045814 2.477597 16.233156 -4.386379 1.147300 0.000000 -26.317700 9.838297 -0.942090 3.141977 -1.010486 1.117819 -20.739694 2.361585 0.469323 4.997035 1.004268 5.872956 8.022774 1.025300 -0.000001 -74.533500
1.756388 17.345330 1.696462 176.225481 -69.627679 -163.396975 -10.925714 2.295996 -0.176774 -10.319870 16.343583 -16.162662 -2.292570 -0.840464 5.724034 2.502125 16.164212 -4.696456 1.066500 0.000000 -25.982900 9.865696 -0.857880 3.011338 -1.166116 0.720953 -21.182122 2.301173 0.426602 5.656535 0.917546 5.285585 7.584899 0.842600 0.000000 -74.433000
1.757462 17.340349 1.716396 175.562588 -70.668634 -162.429751 -10.866524 2.246141 -0.035277 -10.508003 15.237986 -16.798449 -2.286896 -0.805831 6.393612 2.505480 15.971327 -4.973796 0.985800 0.000000 -25.749199 9.891773 -0.769690 2.866032 -1.331079 0.258076 -21.571844 2.236180 0.389850 6.281154 0.812754 4.584225 7.122343 0.635200 0.000001 -74.292800
1.757506 17.334465 1.736425 174.681930 -71.889202 -161.239528 -10.813157 2.200319 0.121369 -10.690442 14.091102 -17.447115 -2.289061 -0.771518 7.033482 2.484956 15.645093 -5.208341 0.908901 -0.000000 -25.621200 9.916599 -0.678396 2.703448 -1.504994 -0.299995 -21.901356 2.168180 0.359699 6.863541 0.690165 3.782983 6.635593 0.409200 0.000000 -74.123000
1.755702 17.327663 1.756015 173.467489 -73.300929 -159.712435 -10.767087 2.159551 0.299320 -10.870504 12.889747 -18.091944 -2.298465 -0.740189 7.619934 2.439117 15.183936 -5.388845 0.839600 -0.000000 -25.601300 9.939993 -0.585408 2.520154 -1.688979 -0.986811 -22.162327 2.099182 0.336244 7.397853 0.550635 2.899957 6.125252 0.171900 -0.000000 -73.935600
1.751628 17.320002 1.774667 171.711564 -74.908577 -157.650451 -10.729747 2.122963 0.502773 -11.053529 11.612907 -18.700197 -2.313142 -0.715127 8.120509 2.368385 14.600163 -5.498438 0.783500 0.000000 -25.688000 9.961659 -0.491545 2.310035 -1.890191 -1.836231 -22.340904 2.030728 0.318070 7.879804 0.395635 1.957443 5.593278 -0.068200 0.000000 -73.742100
1.744094 17.311523 1.792237 169.095823 -76.719487 -154.725617 -10.708048 2.087905 0.742600 -11.237912 10.247349 -19.293591 -2.333150 -0.697459 8.548700 2.270885 13.881729 -5.538316 0.738500 0.000000 -25.878600 9.974003 -0.403293 2.076427 -2.099203 -2.873843 -22.444324 1.967199 0.306340 8.298323 0.225544 0.960598 5.047409 -0.308100 -0.000000 -73.546300
1.733218 17.302512 1.808363 164.890941 -78.712120 -150.227375 -10.708323 2.043979 1.016451 -11.431895 8.763818 -19.809810 -2.354441 -0.692515 8.860443 2.149233 13.061612 -5.481135 0.711200 -0.000000 -26.167700 9.971279 -0.326197 1.811018 -2.339045 -4.123786 -22.445284 1.908447 0.295599 8.648945 0.041011 -0.071818 4.491194 -0.540400 0.000001 -73.352401
1.718865 17.293250 1.822935 157.518807 -80.847395 -142.586213 -10.741641 1.966938 1.321490 -11.641922 7.136007 -20.213651 -2.374854 -0.707649 9.045119 2.003191 12.155172 -5.308679 0.702800 0.000000 -26.550700 9.941023 -0.280202 1.515395 -2.628724 -5.602421 -22.326489 1.854426 0.277637 8.919143 -0.160784 -1.141104 3.931593 -0.762201 0.000000 -73.154200
1.700050 17.283950 1.836536 143.098323 -83.041382 -127.904104 -10.796582 1.809337 1.653236 -11.855007 5.348334 -20.529490 -2.398687 -0.756972 9.158698 1.824875 11.129479 -5.020066 0.705900 -0.000000 -27.022200 9.888866 -0.316032 1.220818 -2.953807 -7.312255 -22.096799 1.803051 0.237185 9.077470 -0.392040 -2.292569 3.380020 -0.980099 0.000000 -72.941599
1.678233 17.275078 1.848727 113.140925 -84.850326 -97.727423 -10.658650 1.577382 1.971575 -12.003066 3.382371 -20.653185 -2.442200 -0.855121 9.171632 1.618001 10.016780 -4.587472 0.725099 0.000000 -27.575900 10.018303 -0.425600 0.950574 -3.262211 -9.244829 -21.681337 1.734081 0.150041 9.109539 -0.658867 -3.539551 2.844752 -1.190900 -0.000001 -72.693900
1.652906 17.266895 1.860272 72.471136 -84.978296 -56.863389 -10.154470 1.560316 2.315225 -11.981149 1.378227 -20.732841 -2.518315 -0.915398 9.039687 1.422843 8.902451 -4.077861 0.750400 -0.000000 -28.206800 10.499618 -0.346686 0.652194 -3.421867 -11.189486 -21.066885 1.649759 0.107815 9.058170 -0.914007 -4.822173 2.387882 -1.406900 0.000000 -72.393400
1.618509 17.259459 1.880535 40.451241 -82.858982 -24.530512 -9.664430 1.781811 3.020503 -11.521633 -1.616822 -21.303303 -2.521068 -0.868074 9.164638 1.273750 7.866894 -3.629278 0.762000 -0.000000 -28.878300 10.933616 -0.055766 0.090460 -3.165948 -14.077322 -20.263912 1.686883 0.203919 8.713818 -1.104980 -6.013046 2.131625 -1.629700 0.000000 -72.065000
1.589339 17.253389 1.891070 31.318149 -80.035468 -15.275199 -9.527472 1.870051 3.456887 -11.577848 -3.710108 -21.209548 -2.572098 -0.855943 8.701711 1.087902 6.815042 -2.889564 0.784299 -0.000000 -29.660400 11.059154 0.139084 -0.347570 -3.600375 -15.981658 -19.277724 1.616537 0.254131 8.490522 -1.350007 -7.397955 1.849570 -1.878601 0.000000 -71.598800
1.559042 17.248505 1.900995 26.349248 -76.821133 -10.222435 -9.440874 1.892378 3.889368 -11.642047 -5.873568 -20.983507 -2.624475 -0.855606 8.162228 0.892369 5.744006 -2.033523 0.793600 0.000000 -30.498800 11.132510 0.272154 -0.773664 -4.126907 -17.838578 -18.087608 1.529048 0.294294 8.137632 -1.626067 -8.939291 1.649312 -2.160700 0.000000 -71.020400
